<svg width="40" height="24" viewBox="0 0 40 24" fill="none" xmlns="http://www.w3.org/2000/svg">
<g clip-path="url(#clip0_6498_40338)">
<path d="M0 0H29.6277C30.3784 0 31.0839 0.358467 31.5265 0.96475L38.9383 11.1171C39.5648 11.9753 39.5378 13.147 38.8725 13.9754L31.528 23.1211C31.0818 23.6767 30.4076 24 29.6949 24H0L5.92257 12.5631C5.94968 12.5108 5.95067 12.4487 5.92525 12.3955L0 0Z" fill="url(#paint0_linear_6498_40338)"/>
<path d="M20.6835 0H13L22.3165 24H30L20.6835 0Z" fill="#482A8A"/>
<g filter="url(#filter0_d_6498_40338)">
<path d="M12.2949 0H21L8.71478 24H0L12.2949 0Z" fill="#F7F4FF"/>
</g>
</g>
<defs>
<filter id="filter0_d_6498_40338" x="-5.97941" y="-1.99314" width="26.9794" height="27.9863" filterUnits="userSpaceOnUse" color-interpolation-filters="sRGB">
<feFlood flood-opacity="0" result="BackgroundImageFix"/>
<feColorMatrix in="SourceAlpha" type="matrix" values="0 0 0 0 0 0 0 0 0 0 0 0 0 0 0 0 0 0 127 0" result="hardAlpha"/>
<feOffset dx="-3.98627"/>
<feGaussianBlur stdDeviation="0.996568"/>
<feComposite in2="hardAlpha" operator="out"/>
<feColorMatrix type="matrix" values="0 0 0 0 0 0 0 0 0 0 0 0 0 0 0 0 0 0 0.1 0"/>
<feBlend mode="normal" in2="BackgroundImageFix" result="effect1_dropShadow_6498_40338"/>
<feBlend mode="normal" in="SourceGraphic" in2="effect1_dropShadow_6498_40338" result="shape"/>
</filter>
<linearGradient id="paint0_linear_6498_40338" x1="40.0468" y1="14.8889" x2="-9.24614" y2="-5.91338" gradientUnits="userSpaceOnUse">
<stop stop-color="#9070D5"/>
<stop offset="1" stop-color="#6334C8"/>
<stop offset="1" stop-color="#6334C8" stop-opacity="0.4"/>
</linearGradient>
<clipPath id="clip0_6498_40338">
<rect width="40" height="24" fill="white"/>
</clipPath>
</defs>
</svg>
